# xmcd
#
# Track frame offsets:
#	150
#	10156
#	18677
#	27441
#	37933
#	46184
#	55839
#	65764
#	74150
#	85182
#	91084
#	100226
#
# Disc length: 1447 seconds
#
# Revision: 1
# Processed by: cddbd v1.5.2PL0 Copyright (c) Steve Scherf et al.
# Submitted via: audiograbber 1.83.01
#
DISCID=9a05a50c
DTITLE=ELVIS PRESLEY - King Creole
DYEAR=1900
DGENRE=Rock
TTITLE0=King Creole
TTITLE1=As Long As I Have You
TTITLE2=Hard Heads Woman
TTITLE3=Trouble
TTITLE4=Dixieland Rock
TTITLE5=Dont Ask Me Why
TTITLE6=Lover Doll
TTITLE7=Crawfish
TTITLE8=Young Dreams
TTITLE9=Steadfast Loyal And The True
TTITLE10=New Orleans
TTITLE11=Danny
EXTD=
EXTT0=
EXTT1=
EXTT2=
EXTT3=
EXTT4=
EXTT5=
EXTT6=
EXTT7=
EXTT8=
EXTT9=
EXTT10=
EXTT11=
PLAYORDER=
